<?xml version="1.0" encoding="UTF-8" standalone="no"?>
<svg
   width="512"
   height="512"
   version="1.1"
   viewBox="0 0 135.47 135.47"
   id="svg6217"
   sodipodi:docname="across.svg"
   inkscape:version="1.2.2 (732a01da63, 2022-12-09)"
   xmlns:inkscape="http://www.inkscape.org/namespaces/inkscape"
   xmlns:sodipodi="http://sodipodi.sourceforge.net/DTD/sodipodi-0.dtd"
   xmlns="http://www.w3.org/2000/svg"
   xmlns:svg="http://www.w3.org/2000/svg">
  <defs
     id="defs6221" />
  <sodipodi:namedview
     id="namedview6219"
     pagecolor="#ffffff"
     bordercolor="#000000"
     borderopacity="0.25"
     inkscape:showpageshadow="2"
     inkscape:pageopacity="0.0"
     inkscape:pagecheckerboard="0"
     inkscape:deskcolor="#d1d1d1"
     showgrid="false"
     inkscape:zoom="1.84375"
     inkscape:cx="258.98305"
     inkscape:cy="242.98305"
     inkscape:window-width="2560"
     inkscape:window-height="1334"
     inkscape:window-x="-11"
     inkscape:window-y="-11"
     inkscape:window-maximized="1"
     inkscape:current-layer="svg6217" />
  <path
     id="circle6205"
     style="fill:#3e3e3e;fill-opacity:1"
     inkscape:label="across"
     d="M 67.735517 19.360535 C 65.930735 19.360535 64.125832 20.254058 63.094342 22.040541 L 38.260105 65.055511 L 13.426384 108.07048 C 11.363405 111.64345 13.942634 116.10947 18.068592 116.10947 L 117.40141 116.10947 C 121.52734 116.10947 124.10659 111.64345 122.04362 108.07048 L 115.17307 96.17014 A 35.645 35.645 0 0 0 122.76969 74.190579 A 35.645 35.645 0 0 0 87.124474 38.545366 A 35.645 35.645 0 0 0 82.115355 38.909177 L 72.376691 22.040541 C 71.345375 20.254058 69.540298 19.360535 67.735517 19.360535 z M 67.731899 38.965505 C 69.536683 38.965505 71.341583 39.858511 72.373074 41.644994 L 105.86746 99.661485 L 105.86694 99.661485 C 107.92993 103.23445 105.35075 107.70295 101.22939 107.69995 L 81.336055 107.69995 L 75.431877 97.474485 L 69.286365 86.831462 C 68.529116 85.521131 66.638068 85.521131 65.880804 86.831462 L 59.735808 97.474485 L 53.831114 107.69995 L 34.238546 107.69995 C 30.112591 107.69995 27.533356 103.23445 29.596338 99.661485 L 63.091242 41.644994 C 64.122559 39.858511 65.927116 38.965505 67.731899 38.965505 z M 88.023667 49.142912 A 25.065117 25.065117 0 0 1 112.18971 74.190579 A 25.065117 25.065117 0 0 1 109.25235 85.914183 L 88.023667 49.142912 z " />
</svg>
